<?xml version="1.0" encoding="UTF-8"?>
<svg xmlns="http://www.w3.org/2000/svg" viewBox="0 0 562.35 379.67">
  <defs>
    <style>
      .cls-1, .cls-2 {
        fill: red;
      }

      .cls-1, .cls-3 {
        letter-spacing: .16em;
      }

      .cls-4 {
        stroke-width: 18px;
      }

      .cls-4, .cls-5 {
        stroke: #000;
      }

      .cls-4, .cls-5, .cls-6 {
        fill: none;
        stroke-miterlimit: 10;
      }

      .cls-2, .cls-7 {
        letter-spacing: .16em;
      }

      .cls-8 {
        font-family: BaskOldFace, 'Baskerville Old Face';
        font-size: 29px;
      }

      .cls-5, .cls-6 {
        stroke-width: 17px;
      }

      .cls-6 {
        stroke: #ed1c24;
      }
    </style>
  </defs>
  <g id="Layer_1" data-name="Layer 1">
    <text class="cls-8" transform="translate(39.18 372.04)"><tspan class="cls-2" x="0" y="0">B</tspan><tspan class="cls-3" x="24.21" y="0">HUVNISH </tspan><tspan class="cls-1" x="205.05" y="0">A</tspan><tspan class="cls-7" x="229.86" y="0">RORA</tspan></text>
    <text/>
    <g>
      <path class="cls-4" d="m149.85,234.5v-7c0-9.67.02-19.33,0-29-.08-30.06-.87-35.29,4-40,2.17-2.1,4.78-3.07,10-5,8.38-3.1,15.75-3.82,29-4,16.06-.22,24.09-.33,34,1,16.37,2.2,24.55,3.3,30,8,13.67,11.8,11.76,34.87,11,44-.75,9.03-1.12,13.55-4,18-5.79,8.95-17.49,12.72-63,14-13.21.37-30.55.57-51,0Z"/>
      <path class="cls-5" d="m235.85,232.5c2.04-.91,5.59-2.16,10-2,2.12.08,6.25.54,12,4,23.9,14.37,29,32,29,32,5.82,20.1-4.46,42.49-19,54-15.01,11.89-30.73,9.15-80,8,0,0-39.68-.78-71,0-27.49.69-66.4,5.07-114,22"/>
    </g>
  </g>
  <g id="b">
    <path class="cls-6" d="m120.33,149.45c-.22,15.04-.7,38.26-1.83,66.75-2.16,54.33-4.45,71.24,7.32,81.39,4.77,4.12,8.34,4.08,51.21,4.57,50.5.58,63.04.82,68.58-8.23,3.95-6.44,3.61-16.38-.91-22.86-6.78-9.73-19.65-6.88-80.47-6.4-5.29.04-19.53.13-38.41,1.83-3.77.34-6.91.67-9.14.91"/>
  </g>
</svg>